<?xml version="1.0" standalone="no"?><!DOCTYPE svg PUBLIC "-//W3C//DTD SVG 1.1//EN" "http://www.w3.org/Graphics/SVG/1.1/DTD/svg11.dtd"><svg t="1491822466832" class="icon" style="" viewBox="0 0 1038 1024" version="1.1" xmlns="http://www.w3.org/2000/svg" p-id="7285" xmlns:xlink="http://www.w3.org/1999/xlink" width="202.734375" height="200"><defs><style type="text/css"></style></defs><path d="M860.595648 1022.400921l141.300502-37.844887c25.585276-6.880888 40.849219-32.999191 33.822959-59.359778L797.456226 36.107912c-6.929345-25.924475-33.677589-41.285332-58.923666-34.501357l-141.300502 37.844887c-25.633733 6.880888-40.849219 32.999191-33.822959 59.359778l238.214426 889.088342C808.601327 1013.824038 835.301113 1029.136438 860.595648 1022.400921zM194.263961 1020.80184C220.769919 1020.80184 242.284811 999.480778 242.284811 972.199508L242.284811 51.759511c0-26.845157-21.85409-48.553876-48.020849-48.553876L48.020849 3.205636C21.514891 3.205636 0 24.478241 0 51.759511l0 920.439996c0 26.845157 21.85409 48.553876 48.020849 48.553876L194.263961 1020.753383zM485.005734 1020.80184c26.505959 0 48.020849-21.272607 48.020849-48.553876L533.026584 51.759511c0-26.845157-21.85409-48.553876-48.020849-48.553876L338.762622 3.205636C312.256664 3.205636 290.741773 24.478241 290.741773 51.759511l0 920.439996c0 26.845157 21.85409 48.553876 48.020849 48.553876L485.005734 1020.753383z" p-id="7286"></path></svg>